HIERARCHY
ROOT Hips
{
  OFFSET 3.13124 94.3669 -3.18751
  CHANNELS  6 Xposition Yposition Zposition Zrotation Xrotation Yrotation
  JOINT LeftUpLeg
  {
    OFFSET 8.64259 1.95398 -2.38835
    CHANNELS 3 Zrotation Xrotation Yrotation
    JOINT LeftLeg
    {
      OFFSET 43.7702 0 0
      CHANNELS 3 Zrotation Xrotation Yrotation
      JOINT LeftFoot
      {
        OFFSET 40.6238 0 0
        CHANNELS 3 Zrotation Xrotation Yrotation
        JOINT LeftToeBase
        {
          OFFSET 12.7242 0 0
          CHANNELS 3 Zrotation Xrotation Yrotation
          End Site
          {
            OFFSET 0 0 0
          }
        }
      }
    }
  }
  JOINT RightUpLeg
  {
    OFFSET -8.2249 1.95398 -2.59336
    CHANNELS 3 Zrotation Xrotation Yrotation
    JOINT RightLeg
    {
      OFFSET 43.5653 0 0
      CHANNELS 3 Zrotation Xrotation Yrotation
      JOINT RightFoot
      {
        OFFSET 40.6238 0 0
        CHANNELS 3 Zrotation Xrotation Yrotation
        JOINT RightToeBase
        {
          OFFSET 12.7242 0 0
          CHANNELS 3 Zrotation Xrotation Yrotation
          End Site
          {
            OFFSET 0 0 0
          }
        }
      }
    }
  }
  JOINT Spine
  {
    OFFSET 0.165834 0.87714 6.61349
    CHANNELS 3 Zrotation Xrotation Yrotation
    JOINT Spine1
    {
      OFFSET 7.38962 1.71661e-005 0
      CHANNELS 3 Zrotation Xrotation Yrotation
      JOINT Spine2
      {
        OFFSET 11.9445 1.14441e-005 0
        CHANNELS 3 Zrotation Xrotation Yrotation
        JOINT Spine3
        {
          OFFSET 14.7254 4.19617e-005 0
          CHANNELS 3 Zrotation Xrotation Yrotation
          JOINT Spine4
          {
            OFFSET 10.9679 0 0
            CHANNELS 3 Zrotation Xrotation Yrotation
            JOINT RightShoulder
            {
              OFFSET 2.46616 -1.6653 3.69651
              CHANNELS 3 Zrotation Xrotation Yrotation
              JOINT RightArm
              {
                OFFSET 13.0012 0 0
                CHANNELS 3 Zrotation Xrotation Yrotation
                JOINT RightForeArm
                {
                  OFFSET 28.7848 1.52588e-005 0
                  CHANNELS 3 Zrotation Xrotation Yrotation
                  JOINT RightHand
                  {
                    OFFSET 26.5688 1.52588e-005 0
                    CHANNELS 3 Zrotation Xrotation Yrotation
                    End Site
                    {
                      OFFSET 0 0 0
                    }
                  }
                }
              }
            }
            JOINT LeftShoulder
            {
              OFFSET 2.38034 -1.29275 -3.75231
              CHANNELS 3 Zrotation Xrotation Yrotation
              JOINT LeftArm
              {
                OFFSET 16.3182 6.10352e-005 0
                CHANNELS 3 Zrotation Xrotation Yrotation
                JOINT LeftForeArm
                {
                  OFFSET 27.0901 0 0
                  CHANNELS 3 Zrotation Xrotation Yrotation
                  JOINT LeftHand
                  {
                    OFFSET 24.5451 1.52588e-005 0
                    CHANNELS 3 Zrotation Xrotation Yrotation
                    End Site
                    {
                      OFFSET 0 0 0
                    }
                  }
                }
              }
            }
            JOINT Neck
            {
              OFFSET 5.0226 -0.0266342 0
              CHANNELS 3 Zrotation Xrotation Yrotation
              JOINT Head
              {
                OFFSET 6.69363 2.86102e-005 0
                CHANNELS 3 Zrotation Xrotation Yrotation
                End Site
                {
                  OFFSET 0 0 0
                }
              }
            }
          }
        }
      }
    }
  }
}
MOTION
Frames:	12
Frame Time:	0.0333333
-1.70905 99.4724 -14.1488 -152 -89.9916 -151.995 -178.426 1.86615 92.8277 -7.40876 1.48727 0.0916852 62.6343 1.5054 0.765439 28.7808 4.15477e-006 3.59812e-007 179.39 1.72763 88.9735 -7.26862 -0.491983 -0.0401994 62.5725 -1.22775 -0.620878 28.7808 1.40399e-005 2.12784e-005 0.00014203 6.34106 -90.0019 14.1918 -8.65217e-005 6.59259e-006 2.52084 -0.000121965 -1.15287e-005 -20.0143 0.000160688 -0.00605491 -0.00167235 0.000161453 -0.00605154 100.755 -18.9154 -85.6411 -2.59705 37.8957 -21.6408 -2.83834 0.141022 -4.323 -5.37983 -0.320015 -0.0162418 -79.4023 -21.8752 93.4034 12.9858 -37.2732 -17.4976 3.87179 38.2712 -2.84257 -1.36283 -0.0636715 -1.76659 1.78233 -0.0138163 -0.0516208 -7.46222 -0.0108592 0.0978911 
-1.72287 99.5026 -14.1229 -151.478 -89.8672 -151.399 -178.403 1.94705 92.9252 -7.85996 1.55109 0.0916879 62.8695 1.56522 0.808675 28.7808 4.15477e-006 3.59812e-007 179.411 0.642862 89.0899 -5.27613 -0.439906 -0.0401991 61.7079 -1.09095 -0.526389 28.7808 1.40399e-005 2.12784e-005 0.00298414 6.35393 -90.0384 14.166 -0.0020815 6.59259e-006 2.49508 -0.00263619 -1.15287e-005 -20.0401 0.00180783 -0.00605491 -0.0274327 0.00180473 -0.00605154 100.717 -18.8716 -85.7202 -2.66673 37.8476 -21.5129 -2.79165 0.141024 -4.31683 -5.37983 -0.320015 -0.0162418 -79.4517 -21.9143 93.3133 13.182 -37.2329 -17.2766 3.82217 38.22 -2.8514 -1.35823 -0.0636733 -1.71505 2.17515 -0.205389 -0.764132 -8.16347 -0.162232 1.46186 
-1.73244 99.5087 -14.1451 -137.685 -89.8821 -137.616 -178.393 1.74367 92.9179 -7.34751 1.50323 0.0916858 62.6167 1.50281 0.768167 28.7808 4.15477e-006 3.59812e-007 179.409 0.786603 89.0694 -5.4771 -0.491923 -0.0401994 61.6906 -1.18754 -0.582569 28.7808 1.40399e-005 2.12784e-005 -0.00241996 6.35781 -90.0349 14.1583 -0.0112436 6.59259e-006 2.48736 -0.0114366 -1.15287e-005 -20.0478 -0.00925157 -0.00605491 -0.0351443 -0.00923896 -0.00605154 100.72 -18.8398 -85.7069 -2.62451 37.8297 -21.5584 -2.78519 0.14103 -4.27938 -5.37983 -0.320015 -0.0162418 -79.4159 -21.8542 93.3951 13.1183 -37.2677 -17.3327 3.86995 37.9571 -2.89834 -1.42546 -0.0636746 -1.67491 1.66788 0.0267521 0.158033 -7.1987 0.0105702 -0.0955658 
-1.73303 99.4787 -14.1213 -82.6946 -89.8926 -82.6831 -178.404 1.7082 92.8533 -7.11053 1.44474 0.0916834 62.5281 1.52284 0.773741 28.7808 4.15477e-006 3.59812e-007 179.395 1.6315 89.0202 -7.0237 -0.602513 -0.0402001 62.4628 -1.21431 -0.611168 28.7808 1.40399e-005 2.12784e-005 0.000288871 6.33969 -90.0016 14.1945 0.000357532 4.28735e-005 2.52355 0.000363321 5.62731e-005 -20.0116 0.000293087 -0.00605491 0.00104361 0.000294778 -0.00605154 100.662 -18.8001 -85.6472 -2.61845 37.8627 -21.5881 -2.81017 0.141031 -4.27725 -5.37983 -0.320015 -0.0162418 -79.5152 -21.7562 93.333 13.0085 -37.2738 -17.3735 3.91541 37.7629 -2.95299 -1.46256 -0.0636777 -1.57604 1.60575 -0.0410259 0.0862764 -7.19329 -0.00376405 0.0376064 
-1.74296 99.4884 -14.0987 -84.1018 -89.8655 -84.0594 -178.394 1.76225 92.9056 -7.2733 1.4572 0.0916839 62.6529 1.48761 0.757603 28.7808 4.15477e-006 3.59812e-007 179.405 1.2686 89.0502 -6.31613 -0.553386 -0.0401998 62.1827 -1.1266 -0.554426 28.7808 1.40399e-005 2.12784e-005 0.000990534 6.34069 -90.0179 14.1925 -0.00080983 0.000380588 2.52156 -0.000816169 0.000906937 -20.0136 -0.000792228 -0.00605491 -0.000946711 -0.0007921 -0.00605154 100.642 -18.7984 -85.6738 -2.67697 37.8974 -21.5694 -2.8176 0.14102 -4.33533 -5.37983 -0.320015 -0.0162418 -79.5369 -21.5937 93.3039 12.8889 -37.1702 -17.3638 3.78734 37.1996 -2.93804 -1.28651 -0.0636838 -1.36334 1.56426 -0.0216919 0.0365196 -7.02467 -0.00600117 0.092306 
-1.74981 99.5119 -14.1001 -70.2193 -89.9186 -70.174 -178.327 0.855944 92.8947 -5.33981 1.47134 0.0916845 61.6939 1.52362 0.758887 28.7808 4.15477e-006 3.59812e-007 179.421 1.05934 89.0545 -5.85021 -0.513676 -0.0401995 61.8698 -1.20577 -0.59751 28.7808 1.40399e-005 2.12784e-005 -0.0120649 6.35442 -89.9965 14.165 -0.0236491 0.00133004 2.49406 -0.0235665 0.00234721 -20.0411 -0.0229625 -0.00605491 -0.0284547 -0.0229586 -0.00605154 100.739 -18.8505 -85.6928 -2.68376 37.9721 -21.6399 -2.87099 0.141012 -4.37934 -5.37983 -0.320015 -0.0162418 -79.4229 -21.4803 93.3236 12.7802 -37.0628 -17.4077 3.72341 36.834 -2.93879 -1.45036 -0.0636858 -1.28449 1.81208 0.00159285 -0.120115 -7.01918 0.0111146 0.199634 
-1.77329 99.4639 -14.0904 -108.554 -89.946 -108.486 -178.373 1.94184 92.9391 -7.68817 1.54408 0.0916876 62.8766 1.48248 0.75602 28.7808 4.15477e-006 3.59812e-007 179.445 1.85065 89.1111 -7.59826 -0.459576 -0.0401992 62.7458 -1.21021 -0.613061 28.7808 1.40399e-005 2.12784e-005 -0.0165792 6.36594 -90.0026 14.142 -0.0332307 0.0043374 2.47106 -0.0330085 0.00578268 -20.0641 -0.033013 -0.00568051 -0.0514467 -0.033 -0.00567688 100.729 -18.836 -85.7019 -2.65753 37.9822 -21.6454 -2.89163 0.141012 -4.38049 -5.37983 -0.320015 -0.0162418 -79.4491 -21.4186 93.2745 12.7838 -37.007 -17.3597 3.66262 36.4586 -2.93313 -1.46187 -0.0636858 -1.28461 2.07381 0.0091087 -0.303391 -7.04548 0.0483733 0.25155 
-1.77763 99.4604 -14.094 -63.4333 -89.9551 -63.3702 -178.354 1.71777 92.9306 -7.13758 1.52792 0.0916869 62.6074 1.51458 0.767663 28.7808 4.15477e-006 3.59812e-007 179.451 2.05722 89.1019 -7.93372 -0.489912 -0.0401994 62.8406 -1.27268 -0.651576 28.7808 1.40399e-005 2.12784e-005 -0.0232926 6.36906 -89.9827 14.1357 -0.0423563 0.0138683 2.4648 -0.0417094 0.0157042 -20.0704 -0.0444867 0.000601593 -0.0577195 -0.0444713 0.000609038 100.729 -18.8501 -85.7082 -2.62498 37.9515 -21.6528 -2.87949 0.141017 -4.35286 -5.37983 -0.320015 -0.0162418 -79.4326 -21.3086 93.2991 12.6692 -37.0171 -17.4124 3.69986 36.3708 -2.9503 -1.51466 -0.0636875 -1.21635 2.35119 -0.000340161 -0.572263 -7.04458 0.0783172 0.328741 
-1.78675 99.444 -14.09 -62.9105 -89.8729 -62.8771 -178.354 1.64912 92.9057 -6.95143 1.44696 0.0916835 62.5402 1.51631 0.764676 28.7808 4.15477e-006 3.59812e-007 179.449 2.50582 89.0498 -8.76999 -0.58692 -0.0393559 63.1831 -1.31263 -0.68003 28.7808 1.40399e-005 2.12784e-005 -0.0220381 6.36927 -89.9597 14.1353 -0.0430706 0.0216296 2.46431 -0.0424473 0.0231053 -20.0709 -0.0450368 0.00990769 -0.0582077 -0.0450327 0.00991436 100.731 -18.8525 -85.7074 -2.63137 37.8906 -21.6267 -2.83141 0.141019 -4.34016 -5.37983 -0.320015 -0.0162418 -79.4356 -21.2305 93.2827 12.6871 -36.9524 -17.3073 3.63709 36.0374 -2.94419 -1.46791 -0.063687 -1.23695 2.51863 -0.0215364 -0.78002 -6.91301 0.0894944 0.35353 
-1.78167 99.5091 -14.0861 -68.6577 -89.8258 -68.5554 -178.294 0.870542 92.9527 -5.35605 1.43108 0.0915731 61.7757 1.65994 0.840627 28.7808 4.15477e-006 3.59812e-007 179.465 0.822874 89.132 -5.30046 -0.432591 -0.0277907 61.6815 -1.07257 -0.51595 28.7808 1.40399e-005 2.12784e-005 -0.0220306 6.36996 -89.9916 14.1339 -0.0408807 0.0243594 2.46297 -0.0402478 0.0257633 -20.0722 -0.0430481 0.000325966 -0.0595488 -0.043052 0.000321436 100.695 -18.8573 -85.7936 -2.71992 37.8636 -21.5332 -2.79498 0.141019 -4.34371 -5.37983 -0.320015 -0.0162418 -79.3985 -21.2052 93.3675 12.7542 -36.8572 -17.2126 3.52686 35.4415 -2.96048 -1.47384 -0.0636886 -1.16806 2.60674 -0.0222822 -0.843986 -6.73136 0.103967 0.287724 
-1.775 99.4465 -14.068 -59.6913 -89.7511 -59.6499 -178.368 1.79034 92.8938 -7.16104 1.34219 0.0887762 62.6631 1.50465 0.760861 28.7808 4.15477e-006 3.59812e-007 179.444 2.55181 89.097 -8.70856 -0.671176 -0.0443035 63.1583 -1.29438 -0.669133 28.7808 1.40399e-005 2.12784e-005 -0.0235598 6.37054 -89.9652 14.1316 -0.0383831 0.0215267 2.46062 -0.0373774 0.0231925 -20.0745 -0.0431453 0.00921999 -0.0618883 -0.0431391 0.00921893 100.708 -18.8776 -85.7571 -2.66538 37.8925 -21.6504 -2.82163 0.141021 -4.32788 -5.37983 -0.320015 -0.0162418 -79.3709 -21.1593 93.4278 12.7235 -36.8825 -17.2123 3.51219 35.6655 -2.87614 -1.43209 -0.0636895 -1.12742 2.89151 -0.085449 -0.899384 -6.88206 0.0556708 0.222357 
-1.7556 99.4602 -14.0488 -55.6547 -89.7421 -55.5804 -178.339 1.55041 92.9215 -6.64723 1.36039 0.0886583 62.4084 1.51219 0.76027 28.7808 4.15477e-006 3.59812e-007 179.455 2.39037 89.0726 -8.36872 -0.677768 -0.0442868 62.9515 -1.28743 -0.662233 28.7808 1.40399e-005 2.12784e-005 -0.0323988 6.37125 -89.9703 14.1263 -0.0593717 0.00840305 2.45531 -0.0589401 0.011008 -20.0798 -0.0591576 -0.00982441 -0.0671947 -0.0591559 -0.00982856 100.705 -18.8272 -85.7621 -2.65996 37.9095 -21.7018 -2.832 0.141018 -4.34404 -5.37983 -0.320015 -0.0162418 -79.2952 -21.1949 93.6065 12.72 -36.9132 -17.2923 3.50173 35.742 -2.82169 -1.52095 -0.06369 -1.10556 3.04674 -0.10856 -0.892445 -6.91762 0.0333522 0.267986 
